<svg id="visual" viewBox="0 0 900 450" width="900" height="450" xmlns="http://www.w3.org/2000/svg" xmlns:xlink="http://www.w3.org/1999/xlink" version="1.1"><path d="M0 6L50 9.7C100 13.3 200 20.7 300 25.8C400 31 500 34 600 31.8C700 29.7 800 22.3 850 18.7L900 15L900 0L850 0C800 0 700 0 600 0C500 0 400 0 300 0C200 0 100 0 50 0L0 0Z" fill="#7000ba"></path><path d="M0 51L50 48C100 45 200 39 300 37.5C400 36 500 39 600 45C700 51 800 60 850 64.5L900 69L900 13L850 16.7C800 20.3 700 27.7 600 29.8C500 32 400 29 300 23.8C200 18.7 100 11.3 50 7.7L0 4Z" fill="#7700c6"></path><path d="M0 82L50 75.3C100 68.7 200 55.3 300 49.3C400 43.3 500 44.7 600 50.7C700 56.7 800 67.3 850 72.7L900 78L900 67L850 62.5C800 58 700 49 600 43C500 37 400 34 300 35.5C200 37 100 43 50 46L0 49Z" fill="#7e00d3"></path><path d="M0 109L50 104.5C100 100 200 91 300 82C400 73 500 64 600 63.3C700 62.7 800 70.3 850 74.2L900 78L900 76L850 70.7C800 65.3 700 54.7 600 48.7C500 42.7 400 41.3 300 47.3C200 53.3 100 66.7 50 73.3L0 80Z" fill="#8500df"></path><path d="M0 132L50 153C100 174 200 216 300 222.7C400 229.3 500 200.7 600 196.2C700 191.7 800 211.3 850 221.2L900 231L900 76L850 72.2C800 68.3 700 60.7 600 61.3C500 62 400 71 300 80C200 89 100 98 50 102.5L0 107Z" fill="#8c00ec"></path><path d="M0 168L50 186.7C100 205.3 200 242.7 300 247.2C400 251.7 500 223.3 600 217.3C700 211.3 800 227.7 850 235.8L900 244L900 229L850 219.2C800 209.3 700 189.7 600 194.2C500 198.7 400 227.3 300 220.7C200 214 100 172 50 151L0 130Z" fill="#9300f9"></path><path d="M0 168L50 192C100 216 200 264 300 269.2C400 274.3 500 236.7 600 225.3C700 214 800 229 850 236.5L900 244L900 242L850 233.8C800 225.7 700 209.3 600 215.3C500 221.3 400 249.7 300 245.2C200 240.7 100 203.3 50 184.7L0 166Z" fill="#9b19ff"></path><path d="M0 168L50 204C100 240 200 312 300 324.7C400 337.3 500 290.7 600 269.7C700 248.7 800 253.3 850 255.7L900 258L900 242L850 234.5C800 227 700 212 600 223.3C500 234.7 400 272.3 300 267.2C200 262 100 214 50 190L0 166Z" fill="#a331ff"></path><path d="M0 186L50 220.5C100 255 200 324 300 339.7C400 355.3 500 317.7 600 296.7C700 275.7 800 271.3 850 269.2L900 267L900 256L850 253.7C800 251.3 700 246.7 600 267.7C500 288.7 400 335.3 300 322.7C200 310 100 238 50 202L0 166Z" fill="#aa43ff"></path><path d="M0 433L50 430.8C100 428.7 200 424.3 300 402.7C400 381 500 342 600 330C700 318 800 333 850 340.5L900 348L900 265L850 267.2C800 269.3 700 273.7 600 294.7C500 315.7 400 353.3 300 337.7C200 322 100 253 50 218.5L0 184Z" fill="#b151ff"></path><path d="M0 442L50 440.5C100 439 200 436 300 432.3C400 428.7 500 424.3 600 426.7C700 429 800 438 850 442.5L900 447L900 346L850 338.5C800 331 700 316 600 328C500 340 400 379 300 400.7C200 422.3 100 426.7 50 428.8L0 431Z" fill="#b85fff"></path><path d="M0 451L50 451C100 451 200 451 300 451C400 451 500 451 600 451C700 451 800 451 850 451L900 451L900 445L850 440.5C800 436 700 427 600 424.7C500 422.3 400 426.7 300 430.3C200 434 100 437 50 438.5L0 440Z" fill="#be6cff"></path></svg>