<?xml version="1.0" standalone="no"?>
<!DOCTYPE svg PUBLIC "-//W3C//DTD SVG 20010904//EN"
 "http://www.w3.org/TR/2001/REC-SVG-20010904/DTD/svg10.dtd">
<svg version="1.0" xmlns="http://www.w3.org/2000/svg"
 width="1024.000000pt" height="1024.000000pt" viewBox="0 0 1024.000000 1024.000000"
 preserveAspectRatio="xMidYMid meet">
<metadata>
Created by potrace 1.14, written by Peter Selinger 2001-2017
</metadata>
<g transform="translate(0.000000,1024.000000) scale(0.100000,-0.100000)"
fill="#000000" stroke="none">
<path d="M5399 8940 c0 -8 -1 -293 -1 -632 l-1 -618 -156 -1 c-86 0 -238 -1
-338 -1 l-182 0 0 -242 c0 -132 0 -247 -1 -255 0 -10 -9 -6 -28 12 -15 15 -31
27 -35 27 -7 0 -36 22 -62 48 -8 6 -16 12 -19 12 -3 0 -47 27 -98 60 -51 33
-98 60 -104 60 -7 0 -14 4 -16 8 -4 11 -182 96 -282 137 -74 29 -263 90 -311
99 -11 2 -47 11 -80 19 -189 49 -485 79 -770 80 -146 0 -327 -8 -387 -18 -12
-2 -48 -6 -78 -9 -30 -4 -66 -8 -80 -11 -14 -2 -43 -6 -65 -10 -22 -3 -47 -7
-55 -10 -8 -2 -33 -6 -55 -10 -61 -9 -256 -63 -369 -102 -96 -33 -126 -45
-206 -81 -19 -9 -37 -17 -40 -17 -6 -1 -55 -27 -127 -67 -29 -16 -53 -26 -53
-24 0 3 -12 -6 -26 -19 -15 -14 -35 -25 -45 -25 -11 0 -19 -5 -19 -10 0 -6 -8
-14 -17 -17 -22 -9 -117 -75 -121 -85 -2 -5 -10 -8 -17 -8 -7 0 -15 -3 -17 -7
-3 -7 -30 -29 -113 -93 -11 -8 -65 -60 -120 -115 -218 -217 -382 -463 -514
-769 -40 -93 -89 -224 -96 -256 -1 -8 -12 -46 -24 -85 -11 -38 -33 -126 -47
-195 -25 -125 -31 -159 -39 -235 -2 -22 -7 -56 -10 -75 -24 -167 -24 -556 0
-790 7 -66 22 -173 30 -210 2 -14 10 -50 16 -80 6 -30 20 -91 31 -135 11 -44
22 -87 23 -95 36 -150 185 -494 267 -616 15 -23 28 -45 28 -48 0 -7 99 -157
109 -166 3 -3 19 -25 36 -49 16 -24 35 -45 42 -48 7 -3 13 -9 13 -14 0 -7 53
-69 110 -128 42 -44 173 -156 240 -206 41 -31 83 -63 93 -71 9 -8 19 -14 21
-14 3 0 130 -82 151 -98 12 -8 107 -59 180 -95 72 -36 228 -100 275 -112 3 -1
12 -4 20 -8 20 -8 146 -46 174 -52 11 -2 48 -11 81 -20 57 -14 73 -17 163 -31
20 -3 51 -7 67 -10 97 -15 124 -18 162 -19 24 0 43 -2 43 -5 0 -8 113 -13 350
-13 255 0 332 4 342 18 5 6 8 5 8 -3 0 -7 5 -10 10 -7 6 3 34 8 63 10 28 2 70
6 92 9 22 3 58 8 80 11 23 3 52 8 65 10 14 3 39 8 55 11 17 3 55 11 86 19 30
8 66 17 80 19 13 2 24 5 24 6 0 1 7 3 15 5 447 108 942 429 1202 780 20 28 42
55 48 62 5 7 15 24 22 38 6 14 15 25 20 25 4 0 8 4 8 9 0 5 16 35 36 67 69
114 193 393 208 467 3 12 11 40 20 62 l15 40 1 -95 c6 -283 58 -528 155 -732
49 -102 76 -151 88 -156 4 -2 7 -8 7 -14 0 -29 183 -232 265 -293 22 -17 42
-32 45 -35 28 -31 210 -128 325 -174 114 -45 303 -99 321 -92 8 3 14 1 14 -5
0 -5 6 -9 13 -8 6 2 32 -1 57 -5 87 -15 106 -17 160 -22 30 -3 81 -7 113 -8
32 -2 60 -6 64 -9 3 -4 13 -2 23 3 10 5 20 6 24 2 11 -11 220 -9 228 3 5 6 8
6 8 -1 0 -12 61 -11 82 2 7 5 8 3 3 -6 -5 -8 -4 -11 2 -7 6 4 41 9 79 12 38 3
83 8 99 10 17 2 57 6 90 10 71 8 122 16 195 29 14 2 43 7 65 11 49 8 150 32
150 35 0 1 11 3 25 5 29 4 140 31 189 47 36 11 36 11 16 108 -16 79 -19 95
-20 100 -1 3 -5 28 -10 55 -4 28 -12 60 -16 73 -15 40 -1 23 36 -45 21 -38 40
-70 44 -73 3 -3 19 -23 36 -45 66 -88 186 -189 297 -249 36 -19 68 -32 72 -29
3 4 6 2 6 -4 0 -8 57 -30 103 -39 4 -1 8 -2 10 -4 3 -3 39 -10 65 -12 12 -1
22 -5 22 -8 0 -12 276 -18 360 -7 25 3 45 6 45 7 0 1 13 4 65 14 14 2 26 5 28
7 1 1 7 3 12 4 6 1 12 4 15 5 3 1 10 4 15 5 6 1 12 4 15 5 3 1 8 3 13 4 4 1
24 10 46 19 21 9 40 17 42 17 2 0 41 24 87 53 137 89 239 195 319 333 40 69
80 169 71 178 -4 3 -1 6 5 6 10 0 30 92 24 113 -1 4 1 7 6 7 23 0 17 339 -8
404 -5 15 -8 32 -5 36 3 5 1 18 -5 30 -5 11 -14 29 -20 40 -5 11 -10 26 -10
33 0 18 -24 67 -69 142 -92 153 -253 295 -423 374 -138 64 -241 85 -418 85
-161 0 -227 -9 -350 -50 -264 -89 -503 -326 -589 -585 -23 -69 -25 -78 -37
-156 -5 -26 -9 -51 -10 -55 -1 -5 -2 -29 -3 -55 -1 -54 -8 -53 -16 3 -3 21 -8
46 -11 54 -3 8 -8 29 -10 45 -3 17 -9 48 -14 70 -6 22 -12 51 -14 65 -3 14 -9
47 -15 75 -5 27 -7 53 -5 57 3 5 0 8 -5 8 -6 0 -11 9 -11 19 0 11 -5 43 -12
71 -11 49 -13 51 -37 45 -14 -4 -36 -7 -48 -8 -13 -1 -23 -5 -23 -8 0 -3 -12
-6 -27 -6 -16 -1 -48 -5 -73 -10 -25 -4 -103 -8 -175 -7 -162 1 -222 20 -285
91 -22 25 -40 49 -40 54 0 4 -5 20 -12 36 -6 15 -11 31 -10 34 1 4 -3 21 -8
38 -6 21 -5 31 2 31 7 0 7 4 1 13 -6 7 -10 423 -9 1132 l1 1120 445 2 c245 0
451 2 458 2 9 1 12 147 12 695 l0 693 -267 1 c-148 0 -354 1 -459 1 l-190 1 0
614 c1 338 -1 623 -4 633 -5 18 -44 18 -957 18 -841 0 -953 -2 -954 -15z
m-2288 -2636 c135 -32 225 -78 310 -157 60 -55 169 -209 169 -238 0 -10 5 -19
11 -21 5 -2 11 -11 13 -20 1 -10 5 -21 9 -24 4 -4 7 -18 7 -30 0 -13 4 -25 9
-28 5 -3 12 -23 17 -43 9 -45 11 -52 14 -55 1 -2 3 -16 5 -33 1 -16 3 -30 4
-30 4 0 9 -35 14 -86 3 -26 9 -53 13 -61 8 -11 142 -14 849 -13 l840 0 2 -425
c1 -234 0 -434 -2 -445 -4 -20 -12 -20 -850 -20 -844 1 -845 1 -846 -20 -4
-61 -21 -172 -35 -217 -3 -10 -7 -30 -10 -44 -3 -15 -9 -35 -15 -46 -5 -10 -6
-18 -2 -18 4 0 2 -5 -5 -12 -7 -7 -12 -20 -12 -30 0 -10 -4 -18 -8 -18 -4 0
-8 -10 -9 -22 -1 -11 -6 -24 -10 -27 -4 -3 -17 -24 -28 -46 -29 -58 -75 -125
-86 -125 -5 0 -9 -5 -9 -11 0 -40 -230 -202 -287 -202 -7 0 -13 -5 -13 -10 0
-5 -7 -7 -15 -3 -8 3 -15 2 -15 -3 0 -4 -6 -8 -12 -9 -7 0 -33 -3 -58 -7 -56
-9 -250 -12 -250 -5 0 3 -12 7 -27 8 -64 5 -220 75 -279 124 -106 89 -185 194
-246 327 -21 47 -43 94 -48 103 -6 10 -10 26 -10 36 0 10 -5 23 -12 30 -7 7
-9 12 -5 12 3 0 2 11 -3 25 -5 14 -12 36 -14 48 -6 25 -13 60 -22 97 -7 29
-15 94 -17 133 -1 15 -4 27 -7 27 -12 0 -21 548 -9 571 5 9 3 21 -3 27 -7 7
-8 12 -2 12 5 0 10 15 11 33 2 49 16 153 29 217 4 19 8 42 9 50 1 8 8 35 15
60 8 25 15 52 16 60 3 19 27 83 34 90 3 3 6 12 8 20 6 25 71 150 104 199 40
58 155 173 209 206 153 97 380 133 560 89z"/>
</g>
</svg>
